<?xml version="1.0" encoding="UTF-8"?><svg id="Layer_2" xmlns="http://www.w3.org/2000/svg" viewBox="0 0 228.38 43.85"><g id="_图层_1"><path d="m119.89,32.56h-12.56l-2.55,9.88h-8.45L108.16.88h11.22l11.83,41.56h-8.84l-2.49-9.88Zm-1.91-7.33s-3.72-13.41-4.27-15.58h-.25c-.51,2.21-4.21,15.58-4.21,15.58h8.73Z" fill="#fff" stroke-width="0"/><path d="m228.38,25.28l-25.88,17.2v-8.48l16.9-11.84v-.25l-16.9-11.85V1.57l25.88,17.2v6.51Z" fill="#fff" stroke-width="0"/><path d="m0,18.78L25.88,1.57v8.48l-16.9,11.85v.25l16.9,11.84v8.48L0,25.28v-6.51Z" fill="#fff" stroke-width="0"/><path d="m66.94,34.21c-9.74,0-10.12-10.87-10.13-12.22h0v-.14h0c0-1.35.39-12.22,10.13-12.22,0,0,4.9-.33,7.85,2.9l5.85-6.49S75.76-.07,66.94,0c-8.81.07-19.79,6.27-19.81,21.91h0s0,.01,0,.02v.02s0,0,0,0c.02,15.64,11,21.83,19.81,21.91,8.81.07,13.7-6.05,13.7-6.05l-5.85-6.49c-2.95,3.23-7.85,2.9-7.85,2.9Z" fill="#fff" stroke-width="0"/><path d="m169,34.21c-9.74,0-10.12-10.87-10.13-12.22h0v-.14h0c0-1.35.39-12.22,10.13-12.22,0,0,4.9-.33,7.85,2.9l5.85-6.49S177.82-.07,169,0c-8.81.07-19.79,6.27-19.8,21.91h0s0,.01,0,.02v.02s0,0,0,0c.02,15.64,11,21.83,19.8,21.91,8.81.07,13.7-6.05,13.7-6.05l-5.85-6.49c-2.95,3.23-7.85,2.9-7.85,2.9Z" fill="#fff" stroke-width="0"/></g></svg>